HIERARCHY
ROOT Hips
{
	OFFSET 0.00 0.00 0.00
	CHANNELS 6 Xposition Yposition Zposition Xrotation Yrotation Zrotation
	JOINT Spine
	{
		OFFSET 0.00000 2.10617 3.15926
		CHANNELS 3 Xrotation Yrotation Zrotation
		JOINT Spine1
		{
			OFFSET 0.00000 0.73147 4.14835
			CHANNELS 3 Xrotation Yrotation Zrotation
			JOINT Spine2
			{
				OFFSET 0.00000 0.36713 4.19631
				CHANNELS 3 Xrotation Yrotation Zrotation
				JOINT Spine3
				{
					OFFSET 0.00000 0.00000 4.21234
					CHANNELS 3 Xrotation Yrotation Zrotation
					JOINT Neck
					{
						OFFSET 0.00000 -1.57962 11.05740
						CHANNELS 3 Xrotation Yrotation Zrotation
						JOINT Head
						{
							OFFSET 0.00000 -1.00576 5.70398
							CHANNELS 3 Xrotation Yrotation Zrotation
							End Site
							{
								OFFSET 0.00000 0.00001 6.81873
							}
						}
					}
					JOINT RightShoulder
					{
						OFFSET -1.28113 -2.13521 6.91810
						CHANNELS 3 Xrotation Yrotation Zrotation
						JOINT RightArm
						{
							OFFSET -6.36294 0.00000 0.00000
							CHANNELS 3 Xrotation Yrotation Zrotation
							JOINT RightForeArm
							{
								OFFSET -10.12221 0.00000 0.00000
								CHANNELS 3 Xrotation Yrotation Zrotation
								JOINT RightHand
								{
									OFFSET -10.76713 0.00000 0.00000
									CHANNELS 3 Xrotation Yrotation Zrotation
									JOINT RightHandEnd
									{
										OFFSET -2.78915 0.00000 0.00000
										CHANNELS 3 Xrotation Yrotation Zrotation
										End Site
										{
											OFFSET -2.78915 0.00000 0.00000
										}
									}
									JOINT RightHandThumb1
									{
										OFFSET -1.11566 -1.85944 -0.74377
										CHANNELS 3 Yrotation Xrotation Zrotation
										End Site
										{
											OFFSET -2.69412 -0.72189 0.00000
										}
									}
								}
							}
						}
					}
					JOINT LeftShoulder
					{
						OFFSET 1.28113 -2.13521 6.91810
						CHANNELS 3 Xrotation Yrotation Zrotation
						JOINT LeftArm
						{
							OFFSET 6.36294 0.00000 0.00000
							CHANNELS 3 Xrotation Yrotation Zrotation
							JOINT LeftForeArm
							{
								OFFSET 10.12221 0.00000 0.00000
								CHANNELS 3 Xrotation Yrotation Zrotation
								JOINT LeftHand
								{
									OFFSET 10.76713 0.00000 0.00000
									CHANNELS 3 Xrotation Yrotation Zrotation
									JOINT LeftHandEnd
									{
										OFFSET 2.78915 0.00000 0.00000
										CHANNELS 3 Xrotation Yrotation Zrotation
										End Site
										{
											OFFSET 2.78915 0.00000 0.00000
										}
									}
									JOINT LeftHandThumb1
									{
										OFFSET 1.11566 -1.85944 -0.74377
										CHANNELS 3 Yrotation Xrotation Zrotation
										End Site
										{
											OFFSET 2.69412 -0.72189 0.00000
										}
									}
								}
							}
						}
					}
				}
			}
		}
	}
	JOINT RightUpLeg
	{
		OFFSET -3.80068 0.00000 -1.11031
		CHANNELS 3 Xrotation Yrotation Zrotation
		JOINT RightLeg
		{
			OFFSET 0.00001 0.00000 -17.00167
			CHANNELS 3 Xrotation Yrotation Zrotation
			JOINT RightFoot
			{
				OFFSET 0.00001 0.00000 -17.96841
				CHANNELS 3 Xrotation Yrotation Zrotation
				JOINT RightToeBase
				{
					OFFSET 0.00000 -5.07501 -1.84715
					CHANNELS 3 Xrotation Yrotation Zrotation
					End Site
					{
						OFFSET 0.00000 -3.07471 -0.00000
					}
				}
			}
		}
	}
	JOINT LeftUpLeg
	{
		OFFSET 3.80068 0.00000 -1.11031
		CHANNELS 3 Xrotation Yrotation Zrotation
		JOINT LeftLeg
		{
			OFFSET 0.00001 0.00000 -17.00167
			CHANNELS 3 Xrotation Yrotation Zrotation
			JOINT LeftFoot
			{
				OFFSET 0.00001 0.00000 -17.96841
				CHANNELS 3 Xrotation Yrotation Zrotation
				JOINT LeftToeBase
				{
					OFFSET 0.00000 -5.07501 -1.84715
					CHANNELS 3 Xrotation Yrotation Zrotation
					End Site
					{
						OFFSET 0.00000 -3.07471 -0.00000
					}
				}
			}
		}
	}
}
MOTION
Frames: 13
Frame Time: 0.008342
 -1.5354 -4.6860 33.4686 3.2682 0.4118 -1.5340 18.6300 0.4068 0.9845 9.5597 0.3045 0.1600 0.7740 0.4134 -0.7661 0.4131 0.3301 -0.4418 16.5087 -2.3456 0.4680 -9.5990 0.3262 1.3786 5.7463 1.7263 -20.2390 -65.7850 -28.1583 -85.8015 -0.0001 0.0001 115.7298 -41.5539 -24.7156 0.0184 -0.0000 -0.0000 0.0000 0.0000 0.0000 0.0000 4.1283 -2.8939 14.5818 -57.0145 36.5461 75.1813 -0.0001 -0.0001 -110.2292 -41.0174 2.1326 -2.4339 0.0000 -0.0000 0.0000 0.0000 0.0000 0.0000 -33.1646 7.8313 -10.9355 61.5547 0.0000 0.0000 -31.8398 -5.4805 -25.2252 -0.6418 0.0000 -0.0000 -37.8571 -2.7611 -5.4148 61.2536 0.0000 0.0000 -33.9730 18.2322 17.7586 12.1341 0.0000 0.0000
 -1.5406 -4.6975 33.4952 3.3848 0.3888 -1.6294 18.6699 0.4123 0.9790 9.5725 0.3143 0.1542 0.7639 0.3850 -0.7709 0.4213 0.3293 -0.4425 16.5179 -2.2996 0.4948 -9.6549 0.3457 1.3569 5.8249 1.6996 -20.2948 -65.8699 -28.1020 -85.9149 -0.0001 0.0001 115.7235 -41.5653 -24.3260 -0.0477 0.0000 -0.0000 -0.0000 -0.0000 -0.0000 -0.0000 4.2188 -2.8666 14.4672 -57.1618 36.4334 75.4306 -0.0001 -0.0001 -110.0352 -40.7123 1.8896 -2.4629 0.0000 -0.0000 -0.0000 -0.0000 0.0000 0.0000 -33.2003 7.7357 -10.8176 61.3795 0.0000 0.0000 -31.7763 -5.3868 -25.2248 -0.5748 0.0000 -0.0000 -37.8424 -2.7661 -5.3853 61.0716 0.0000 0.0000 -33.9460 18.1583 17.8333 12.0794 0.0000 0.0000
 -1.5470 -4.7087 33.5198 3.5026 0.3677 -1.7335 18.7083 0.4217 0.9738 9.5844 0.3258 0.1455 0.7610 0.3590 -0.7733 0.4265 0.3273 -0.4426 16.5140 -2.2563 0.5213 -9.7136 0.3670 1.3350 5.9077 1.6815 -20.3491 -65.9649 -28.0573 -86.0233 -0.0001 0.0001 115.7326 -41.5774 -23.9431 -0.0869 0.0000 -0.0000 0.0000 0.0000 -0.0000 0.0000 4.2908 -2.8480 14.3498 -57.2383 36.2952 75.6316 -0.0001 -0.0001 -109.8933 -40.4253 1.6587 -2.4942 0.0000 -0.0000 0.0000 0.0000 -0.0000 -0.0000 -33.2445 7.6362 -10.6977 61.2177 0.0000 0.0000 -31.7162 -5.3014 -25.2194 -0.5117 0.0000 -0.0000 -37.8357 -2.7838 -5.3470 60.9039 0.0000 0.0000 -33.9224 18.0928 17.8966 12.0187 0.0000 0.0000
 -1.5547 -4.7192 33.5427 3.6268 0.3510 -1.8443 18.7433 0.4322 0.9665 9.5971 0.3397 0.1418 0.7593 0.3383 -0.7852 0.4312 0.3245 -0.4420 16.4971 -2.2220 0.5470 -9.7725 0.3902 1.3211 5.9810 1.6695 -20.3914 -66.0564 -28.0198 -86.1245 -0.0001 0.0001 115.7501 -41.5990 -23.6026 -0.0973 0.0000 -0.0000 -0.0000 -0.0000 -0.0000 -0.0000 4.3459 -2.8391 14.2480 -57.2476 36.1485 75.7756 -0.0001 -0.0001 -109.8031 -40.1664 1.4496 -2.5290 -0.0000 0.0000 -0.0000 -0.0000 -0.0000 0.0000 -33.3016 7.5306 -10.5782 61.0665 0.0000 0.0000 -31.6588 -5.2278 -25.2119 -0.4549 0.0000 -0.0000 -37.8433 -2.8164 -5.3023 60.7503 0.0000 0.0000 -33.8995 18.0364 17.9462 11.9536 0.0000 0.0000
 -1.5626 -4.7306 33.5650 3.7363 0.3264 -1.9625 18.7936 0.4547 0.9550 9.6102 0.3566 0.1370 0.7637 0.3229 -0.8000 0.4338 0.3212 -0.4421 16.4691 -2.1985 0.5719 -9.8295 0.4159 1.3163 6.0466 1.6576 -20.4274 -66.1486 -27.9971 -86.2122 -0.0001 0.0001 115.7693 -41.6349 -23.3240 -0.0787 -0.0000 0.0000 -0.0000 -0.0000 0.0000 -0.0000 4.3789 -2.8371 14.1633 -57.1908 35.9987 75.8625 -0.0001 -0.0001 -109.7626 -39.9479 1.2696 -2.5682 -0.0000 -0.0000 0.0000 -0.0000 -0.0000 0.0000 -33.3466 7.4348 -10.4551 60.9232 0.0000 0.0000 -31.6064 -5.1736 -25.1982 -0.4066 0.0000 -0.0000 -37.8337 -2.8492 -5.2455 60.5997 0.0000 0.0000 -33.8776 17.9850 17.9877 11.8859 0.0000 0.0000
 -1.5716 -4.7415 33.5864 3.8511 0.3026 -2.0853 18.8411 0.4812 0.9410 9.6243 0.3758 0.1330 0.7721 0.3128 -0.8202 0.4350 0.3193 -0.4432 16.4307 -2.1925 0.5882 -9.8824 0.4432 1.3336 6.0957 1.6435 -20.4557 -66.2346 -27.9907 -86.2862 -0.0001 0.0001 115.7820 -41.6934 -23.1257 -0.0356 -0.0000 0.0000 0.0000 -0.0000 0.0000 0.0000 4.3993 -2.8412 14.1069 -57.0889 35.8606 75.8918 -0.0001 -0.0001 -109.7663 -39.7675 1.1113 -2.6034 0.0000 -0.0000 0.0000 -0.0000 -0.0000 -0.0000 -33.4007 7.3384 -10.3329 60.7855 0.0000 0.0000 -31.5554 -5.1389 -25.1851 -0.3713 0.0000 -0.0000 -37.8338 -2.8906 -5.1835 60.4570 0.0000 0.0000 -33.8536 17.9411 18.0190 11.8207 0.0000 0.0000
 -1.5820 -4.7516 33.6072 3.9789 0.2917 -2.2093 18.8783 0.4979 0.9318 9.6380 0.3943 0.1299 0.7872 0.3144 -0.8486 0.4331 0.3132 -0.4490 16.3871 -2.1953 0.6144 -9.9321 0.4661 1.3469 6.1310 1.6112 -20.4743 -66.3138 -27.9972 -86.3366 -0.0001 0.0001 115.7914 -41.7764 -23.0021 0.0297 -0.0000 0.0000 -0.0000 0.0000 -0.0000 0.0000 4.4106 -2.8621 14.0805 -56.9663 35.7475 75.8873 -0.0001 -0.0001 -109.7925 -39.6407 1.0031 -2.6549 -0.0000 0.0000 -0.0000 0.0000 0.0000 0.0000 -33.4680 7.2298 -10.2194 60.6476 0.0000 0.0000 -31.5030 -5.1265 -25.1786 -0.3442 0.0000 -0.0000 -37.8542 -2.9498 -5.1263 60.3247 0.0000 0.0000 -33.8266 17.9036 18.0392 11.7564 0.0000 0.0000
 -1.5922 -4.7628 33.6283 4.0915 0.2714 -2.3359 18.9295 0.5282 0.9181 9.6538 0.4133 0.1245 0.8082 0.3198 -0.8835 0.4289 0.3063 -0.4467 16.3388 -2.2147 0.6287 -9.9747 0.4904 1.3822 6.1511 1.5717 -20.4965 -66.3911 -28.0271 -86.3712 -0.0001 0.0001 115.7836 -41.8853 -22.9644 0.1053 0.0000 0.0000 -0.0000 0.0000 0.0000 -0.0000 4.3945 -2.8824 14.0642 -56.8054 35.6399 75.8474 -0.0001 -0.0001 -109.8453 -39.5661 0.9138 -2.7036 0.0000 0.0000 -0.0000 0.0000 -0.0000 0.0000 -33.5188 7.1363 -10.1059 60.5101 0.0000 0.0000 -31.4518 -5.1423 -25.1715 -0.3335 0.0000 -0.0000 -37.8535 -3.0013 -5.0631 60.1877 0.0000 0.0000 -33.7979 17.8678 18.0602 11.7017 0.0000 0.0000
 -1.6025 -4.7742 33.6495 4.2050 0.2488 -2.4627 18.9814 0.5618 0.9020 9.6669 0.4363 0.1226 0.8371 0.3266 -0.9221 0.4227 0.3019 -0.4551 16.2881 -2.2502 0.6425 -10.0104 0.5120 1.4333 6.1420 1.5177 -20.4966 -66.4460 -28.0602 -86.3926 -0.0001 0.0001 115.7606 -42.0244 -23.0036 0.1852 -0.0000 -0.0000 -0.0000 -0.0000 -0.0000 0.0000 4.4007 -2.9145 14.0974 -56.6878 35.5872 75.7875 -0.0001 -0.0001 -109.8972 -39.5260 0.8376 -2.7563 0.0000 -0.0000 -0.0000 0.0000 -0.0000 -0.0000 -33.5705 7.0510 -9.9973 60.3725 0.0000 0.0000 -31.3981 -5.1858 -25.1686 -0.3373 0.0000 -0.0000 -37.8533 -3.0503 -5.0010 60.0503 0.0000 0.0000 -33.7662 17.8336 18.0826 11.6586 0.0000 0.0000
 -1.6134 -4.7851 33.6708 4.3272 0.2366 -2.5861 19.0223 0.5880 0.8891 9.6874 0.4521 0.1192 0.8653 0.3435 -0.9667 0.4153 0.2938 -0.4560 16.2378 -2.2983 0.6486 -10.0393 0.5314 1.4944 6.1231 1.4468 -20.5030 -66.5020 -28.1148 -86.3994 -0.0001 0.0001 115.7200 -42.1822 -23.0978 0.2589 0.0000 0.0000 -0.0000 -0.0000 0.0000 -0.0000 4.3879 -2.9507 14.1308 -56.5692 35.5473 75.7254 -0.0001 -0.0001 -109.9458 -39.5324 0.7752 -2.8114 -0.0000 0.0000 -0.0000 0.0000 -0.0000 -0.0000 -33.6279 6.9613 -9.9022 60.2302 0.0000 0.0000 -31.3382 -5.2544 -25.1752 -0.3563 0.0000 -0.0000 -37.8659 -3.1072 -4.9501 59.9167 0.0000 0.0000 -33.7318 17.8028 18.1067 11.6291 0.0000 0.0000
 -1.6244 -4.7956 33.6921 4.4575 0.2322 -2.7040 19.0558 0.6060 0.8800 9.7068 0.4724 0.1162 0.8982 0.3540 -1.0212 0.4060 0.2861 -0.4520 16.1894 -2.3567 0.6493 -10.0625 0.5483 1.5636 6.0886 1.3592 -20.5039 -66.5483 -28.1784 -86.3935 -0.0001 0.0001 115.6647 -42.3541 -23.2233 0.3171 0.0000 0.0000 -0.0000 -0.0000 0.0000 -0.0000 4.3830 -2.9930 14.1767 -56.4962 35.5415 75.6780 -0.0001 -0.0001 -109.9754 -39.5684 0.7134 -2.8693 0.0000 -0.0000 0.0000 -0.0000 0.0000 -0.0000 -33.6910 6.8735 -9.8229 60.0845 0.0000 0.0000 -31.2715 -5.3479 -25.1891 -0.3879 0.0000 -0.0000 -37.8906 -3.1659 -4.9121 59.7861 0.0000 0.0000 -33.6954 17.7736 18.1370 11.6160 0.0000 0.0000
 -1.6333 -4.8080 33.7142 4.5617 0.2136 -2.8191 19.1125 0.6368 0.8660 9.7272 0.4889 0.1129 0.9325 0.3667 -1.0733 0.3970 0.2782 -0.4493 16.1436 -2.4212 0.6461 -10.0795 0.5617 1.6369 6.0433 1.2617 -20.4989 -66.5902 -28.2512 -86.3851 -0.0001 0.0001 115.5924 -42.5288 -23.3677 0.3594 -0.0000 0.0000 -0.0000 -0.0000 0.0000 0.0000 4.3852 -3.0326 14.2304 -56.4675 35.5637 75.6459 -0.0001 -0.0001 -109.9796 -39.6258 0.6432 -2.9248 0.0000 0.0000 0.0000 -0.0000 0.0000 0.0000 -33.7249 6.8150 -9.7498 59.9391 0.0000 0.0000 -31.2027 -5.4698 -25.2011 -0.4309 0.0000 -0.0000 -37.8795 -3.2011 -4.8751 59.6445 0.0000 0.0000 -33.6603 17.7391 18.1844 11.6194 0.0000 0.0000
 -1.6425 -4.8186 33.7356 4.6898 0.2121 -2.9263 19.1471 0.6494 0.8589 9.7445 0.5036 0.1119 0.9699 0.3756 -1.1269 0.3868 0.2675 -0.4433 16.1005 -2.4868 0.6361 -10.0940 0.5701 1.7071 5.9942 1.1596 -20.4971 -66.6338 -28.3367 -86.3797 -0.0001 0.0001 115.5067 -42.6942 -23.5063 0.3802 0.0000 -0.0000 -0.0000 0.0000 -0.0000 -0.0000 4.3958 -3.0705 14.2722 -56.4897 35.6049 75.6465 -0.0001 -0.0001 -109.9525 -39.6955 0.5612 -2.9769 0.0000 0.0000 -0.0000 0.0000 0.0000 0.0000 -33.7827 6.7492 -9.6988 59.7925 0.0000 0.0000 -31.1243 -5.6086 -25.2230 -0.4821 0.0000 -0.0000 -37.9043 -3.2462 -4.8582 59.5136 0.0000 0.0000 -33.6239 17.7081 18.2379 11.6379 0.0000 0.0000
